<?xml version="1.0" standalone="no"?>
<!DOCTYPE svg PUBLIC "-//W3C//DTD SVG 20010904//EN"
 "http://www.w3.org/TR/2001/REC-SVG-20010904/DTD/svg10.dtd">
<svg version="1.0" xmlns="http://www.w3.org/2000/svg"
 width="595" height="532" viewBox="466 133 595 532"
 preserveAspectRatio="xMidYMid meet">

<g transform="translate(0.000000,1024.000000) scale(0.100000,-0.100000)"
fill="#000000" stroke="none">
<path d="M4865 8690 c3 -14 15 -37 26 -52 10 -15 19 -33 19 -41 0 -17 101
-214 147 -286 69 -108 211 -235 328 -294 80 -40 203 -74 290 -81 163 -13 176
-16 187 -42 8 -18 7 -29 -5 -48 -9 -14 -14 -31 -11 -39 3 -8 -4 -32 -15 -53
-12 -21 -21 -42 -21 -46 0 -14 -160 -267 -187 -295 -22 -24 -24 -13 -3 15 41
52 126 187 149 237 13 28 30 63 38 78 22 41 10 43 -20 3 -88 -115 -290 -247
-401 -262 -25 -4 -46 -11 -46 -16 0 -14 59 -2 116 23 25 10 49 19 52 19 4 0 6
-20 4 -44 -4 -43 -3 -45 30 -55 18 -5 26 -10 16 -10 -26 -2 -168 27 -221 45
-27 9 -51 14 -54 11 -3 -3 6 -21 20 -39 13 -18 34 -62 46 -97 20 -61 21 -84
21 -426 0 -275 3 -364 13 -374 10 -11 9 -13 -4 -8 -13 4 -18 -2 -23 -24 -6
-32 -71 -100 -118 -125 -16 -8 -28 -16 -28 -17 0 -2 28 -4 62 -5 83 -3 88 -12
8 -12 -66 0 -70 -8 -19 -34 38 -19 98 -106 106 -156 10 -58 6 -384 -6 -475
-12 -88 -30 -167 -42 -179 -5 -6 -9 -18 -9 -28 0 -24 -68 -193 -97 -240 -13
-21 -23 -40 -23 -44 0 -18 -181 -295 -223 -340 -26 -29 -46 -58 -45 -65 2 -8
-7 -15 -19 -17 -14 -2 -23 -10 -23 -21 0 -9 -5 -22 -12 -29 -8 -8 -8 -15 1
-26 11 -13 21 -10 75 28 34 24 86 62 116 85 30 22 61 41 68 41 8 0 26 6 40 14
91 49 336 96 499 96 103 0 273 -26 356 -55 72 -25 254 -133 296 -177 14 -14
35 -38 47 -53 19 -26 22 -27 46 -14 15 8 107 93 206 189 271 265 498 479 564
531 67 54 105 66 145 47 l28 -14 -5 -84 c-3 -47 -5 -152 -5 -235 0 -82 -2
-152 -5 -155 -3 -3 -16 -19 -28 -36 -33 -48 -134 -85 -247 -92 -49 -2 -93 -9
-96 -14 -4 -6 -14 -6 -28 1 -19 10 -21 9 -21 -11 0 -25 -58 -127 -94 -168 -13
-14 -39 -54 -59 -90 -19 -36 -76 -117 -125 -181 -87 -113 -106 -147 -95 -175
7 -20 30 -17 61 7 85 65 109 81 157 104 71 33 166 55 244 55 125 0 361 -32
486 -67 223 -62 533 -257 640 -403 40 -55 67 -63 86 -27 16 30 50 70 118 142
31 33 70 76 87 95 63 73 552 548 607 589 31 24 57 47 57 52 0 4 -15 10 -32 12
l-33 4 35 0 c40 0 64 21 324 278 88 88 191 185 228 214 37 30 70 62 73 72 3
10 22 27 43 39 l36 22 32 -35 c38 -42 48 -102 46 -282 -2 -136 -8 -187 -27
-230 -7 -17 -23 -50 -34 -75 -11 -25 -29 -61 -39 -80 -11 -19 -39 -74 -63
-123 -83 -169 -242 -307 -463 -403 -100 -44 -133 -64 -105 -64 12 0 12 -2 -1
-10 -11 -7 -9 -11 14 -20 43 -16 89 -3 221 60 205 99 377 222 521 373 168 175
245 289 389 577 53 106 108 210 122 231 14 22 24 42 21 45 -7 7 -153 -33 -189
-51 -39 -21 -46 -19 -63 14 -14 27 -13 32 20 94 19 37 40 70 46 73 6 4 22 -5
35 -20 l23 -27 -20 -39 c-22 -43 -26 -70 -10 -70 25 0 80 30 80 44 0 19 20 25
45 14 19 -8 19 -8 1 4 -46 31 -126 124 -154 181 -62 123 -64 143 -69 692 -6
537 1 664 39 781 24 75 72 153 155 251 29 34 49 63 44 63 -5 0 -40 -26 -79
-57 -38 -32 -86 -71 -108 -88 -72 -56 -209 -171 -222 -187 -18 -22 -456 -36
-530 -17 -48 12 -51 15 -89 86 -21 40 -41 73 -45 73 -4 0 -10 -10 -14 -22 -3
-11 -25 -45 -48 -73 -22 -29 -76 -97 -118 -151 -43 -55 -114 -134 -158 -178
-74 -73 -92 -96 -72 -96 11 0 124 111 195 190 32 36 56 58 54 50 -6 -20 10
-50 26 -50 7 0 57 38 112 85 l100 84 5 -72 5 -72 -65 -6 c-122 -12 -203 -47
-327 -141 -30 -24 -68 -52 -84 -63 -76 -53 35 -53 140 0 49 24 107 43 174 56
157 30 142 95 142 -605 0 -384 3 -586 10 -587 6 0 1 -4 -11 -9 -18 -7 -22 -19
-27 -76 -6 -79 -22 -99 -91 -109 -33 -5 -53 -2 -86 14 -23 11 -47 18 -53 14
-6 -3 -7 -1 -3 6 5 7 -12 20 -51 37 -201 89 -295 155 -308 216 -4 15 -13 28
-21 28 -12 0 -14 9 -9 43 3 23 7 236 10 472 2 254 8 444 15 465 5 19 10 56 10
81 0 77 135 378 297 662 40 70 73 131 73 136 0 4 9 16 19 25 22 20 35 57 17
49 -26 -12 -205 -240 -323 -413 -90 -131 -95 -138 -244 -265 -56 -47 -81 -64
-61 -42 l32 38 -21 29 c-12 16 -28 31 -36 34 -8 3 -11 10 -8 16 14 22 -14 7
-83 -46 -41 -31 -76 -54 -78 -51 -3 2 26 28 63 58 109 85 411 338 418 349 13
21 -5 24 -40 7 -58 -28 -68 -24 -62 26 2 23 8 51 13 61 8 20 -3 20 -47 2 -10
-5 -16 -2 -16 9 0 8 8 15 18 15 17 0 18 7 14 64 -3 36 -1 84 5 108 6 24 14
102 19 174 12 163 29 259 52 283 15 16 31 18 131 15 122 -3 196 -18 381 -79
60 -19 120 -35 135 -35 33 -1 77 -37 85 -72 4 -14 -1 -52 -9 -84 -17 -61 -21
-146 -15 -347 5 -134 12 -149 60 -121 25 15 33 28 42 73 15 72 60 189 94 243
14 24 48 80 75 126 83 138 258 360 433 546 62 65 116 125 120 132 11 19 -17
29 -40 15 -15 -9 -13 -10 12 -5 22 5 -5 -19 -95 -86 -314 -232 -327 -245 -464
-440 -48 -69 -61 -83 -45 -47 10 21 10 30 1 39 -18 18 -14 37 16 75 49 62 77
87 160 147 45 33 81 61 79 62 -2 2 -35 -3 -73 -11 -201 -43 -465 16 -674 150
-24 16 -28 15 -123 -41 -54 -31 -100 -54 -103 -52 -3 3 23 20 58 38 35 18 82
45 106 61 39 26 45 28 59 14 37 -38 286 -146 300 -131 3 2 -4 7 -15 10 -11 4
-31 29 -44 56 -19 41 -31 52 -73 69 -56 23 -132 79 -85 62 14 -5 50 -20 80
-34 280 -128 557 -126 834 4 39 18 65 34 60 36 -6 2 -50 -15 -98 -37 -268
-124 -534 -115 -816 27 -136 68 -142 71 -111 44 37 -33 10 -24 -29 9 -19 16
-29 30 -21 30 11 0 11 3 1 15 -15 18 -37 21 -23 3 5 -7 6 -29 2 -48 -3 -19 -8
-27 -9 -17 -1 9 -3 21 -4 26 -4 30 -29 13 -140 -97 -67 -67 -131 -122 -141
-122 -10 0 -38 -17 -63 -37 -25 -21 -52 -43 -60 -49 -12 -8 -12 -15 -3 -33 10
-18 8 -26 -11 -51 -27 -33 -42 -39 -33 -11 3 11 1 22 -5 26 -6 3 -7 11 -3 17
3 7 -42 -30 -100 -81 -59 -52 -107 -96 -107 -99 0 -3 8 2 18 11 21 19 37 22
26 5 -4 -7 -3 -8 5 -4 6 4 8 14 5 23 -5 13 -2 15 11 10 11 -5 15 -3 10 5 -4 7
-3 8 5 4 6 -4 18 -2 26 4 8 7 15 10 15 6 0 -3 -33 -32 -73 -63 -136 -108 -237
-198 -237 -211 0 -10 -8 -12 -30 -7 -50 11 -53 -3 -12 -50 64 -73 71 -114 73
-395 1 -318 -8 -366 -82 -437 -163 -154 -212 -207 -99 -107 183 163 220 192
220 175 0 -6 -15 -21 -34 -33 -18 -13 -60 -46 -92 -74 -113 -99 -157 -132
-168 -128 -6 2 -29 -13 -51 -34 -23 -20 -60 -50 -83 -66 -40 -27 -43 -28 -67
-12 -14 9 -25 25 -25 36 0 11 -4 20 -10 20 -5 0 -10 -7 -10 -15 0 -17 -6 -18
-35 -5 -17 7 -17 9 -2 9 15 1 17 15 17 146 0 88 4 145 10 145 6 0 9 137 7 378
-1 207 -5 361 -8 342 -5 -27 -7 -19 -8 33 -1 47 3 67 12 67 8 0 7 4 -3 10 -9
6 -10 10 -3 10 9 0 12 59 11 238 -1 150 3 252 10 277 7 26 8 54 2 78 -7 32 -5
42 10 57 11 11 26 32 34 47 42 82 157 140 316 163 89 13 210 69 210 97 0 16
-30 16 -175 3 -212 -20 -396 -67 -559 -145 l-69 -33 -66 33 c-91 45 -198 83
-316 110 -95 22 -98 24 -50 25 73 2 27 19 -50 18 -49 0 -54 -2 -30 -8 17 -5
-6 -5 -50 -2 -135 12 -210 9 -210 -7 0 -29 53 -53 176 -78 185 -37 264 -88
318 -202 l26 -56 -3 -795 c-2 -792 -13 -1191 -34 -1327 -10 -61 -15 -73 -36
-83 -56 -25 -61 15 -67 505 -3 220 -10 470 -16 555 -6 85 -10 261 -8 390 1
129 -1 253 -6 275 -10 51 -34 108 -49 117 -19 13 -27 9 -16 -9 18 -33 40 -95
40 -114 0 -11 5 -19 10 -19 11 0 11 -117 0 -225 l-7 -70 -1 65 c-2 50 -8 74
-27 105 -13 22 -25 47 -25 56 0 26 -34 49 -76 53 -37 3 -40 6 -60 59 l-21 54
55 37 c30 20 59 36 63 36 13 0 11 16 -7 58 -8 20 -15 38 -15 39 1 2 -22 25
-49 51 -28 27 -48 51 -46 53 3 3 -4 5 -15 5 -15 0 -28 -17 -50 -64 -29 -61
-30 -64 -13 -83 28 -31 11 -22 -32 17 -88 79 -165 121 -279 151 -48 12 -156
17 -550 23 -553 8 -563 9 -729 92 -156 78 -293 211 -371 358 -26 49 -40 62
-30 30z m4292 -352 c-3 -7 -5 -2 -5 12 0 14 2 19 5 13 2 -7 2 -19 0 -25z
m-1380 -230 c-2 -18 -4 -6 -4 27 0 33 2 48 4 33 2 -15 2 -42 0 -60z m1173 67
c0 -5 -92 -55 -125 -67 -16 -7 -15 -4 5 13 14 12 24 26 22 32 -2 5 4 7 12 4 9
-4 30 0 48 8 38 17 38 16 38 10z m-1593 -177 c-2 -18 -4 -6 -4 27 0 33 2 48 4
33 2 -15 2 -42 0 -60z m1297 -76 c-26 -43 -66 -119 -115 -215 -11 -21 -24 -35
-30 -31 -7 4 -8 9 -1 13 8 5 45 71 141 255 14 27 27 43 29 37 2 -6 -9 -33 -24
-59z m-2187 2 c62 -8 177 -68 217 -115 18 -22 39 -60 45 -85 26 -101 37 -1783
12 -1894 -21 -96 -62 -218 -92 -273 -33 -59 -37 -78 -11 -50 20 22 5 -3 -19
-32 -9 -11 -20 -33 -23 -50 -4 -16 -24 -61 -45 -99 -30 -56 -44 -72 -72 -81
-19 -7 -38 -9 -44 -5 -5 3 -32 19 -60 35 -61 35 -43 8 24 -34 49 -32 67 -38
56 -21 -7 11 -3 12 19 4 8 -3 12 -12 9 -20 -3 -9 1 -14 12 -14 19 0 19 1 -14
-124 -12 -43 -19 -81 -16 -84 6 -7 -35 -52 -48 -52 -5 0 -33 22 -62 48 -67 61
-148 116 -223 149 -152 67 -386 82 -602 37 l-35 -7 58 54 c69 63 126 99 219
135 39 16 74 37 83 51 13 19 24 23 64 23 27 0 51 -3 53 -7 2 -5 20 -21 41 -37
l38 -28 24 22 c22 21 28 22 67 12 38 -10 41 -9 24 4 -11 8 -26 14 -34 14 -8 0
-11 7 -8 18 16 53 10 2385 -7 2422 -10 23 43 80 83 90 34 7 183 4 267 -6z
m903 -96 c0 -10 -4 -18 -10 -18 -5 0 -10 15 -10 33 0 24 3 28 10 17 5 -8 10
-23 10 -32z m-1334 -31 c5 -33 3 -47 -5 -47 -17 0 -27 36 -23 76 6 46 20 31
28 -29z m84 -248 c0 -102 -7 -159 -20 -159 -19 0 -30 72 -30 189 l1 126 24
-30 c23 -27 25 -39 25 -126z m3430 60 c0 -41 -4 -68 -9 -64 -5 3 -12 1 -16 -5
-15 -25 -24 -6 -20 45 8 110 45 130 45 24z m17 -291 c-3 -8 -6 -5 -6 6 -1 11
2 17 5 13 3 -3 4 -12 1 -19z m-1233 -516 c-5 -5 -38 -33 -74 -63 -36 -29 -67
-56 -70 -59 -3 -3 -70 -64 -150 -135 -80 -71 -148 -134 -152 -140 -5 -7 -8 -6
-8 1 0 7 30 38 67 70 36 33 138 123 227 201 88 78 162 140 165 137 3 -2 0 -8
-5 -12z m377 -214 c-19 -28 -21 -29 -15 -8 7 28 25 53 32 46 2 -3 -5 -20 -17
-38z m-742 -68 c-30 -27 -58 -50 -63 -50 -4 0 13 19 40 43 26 23 52 47 58 53
6 7 13 10 15 8 2 -2 -20 -26 -50 -54z m679 -37 c-20 -32 -50 -85 -68 -118 -29
-55 -68 -106 -59 -79 8 24 154 263 158 259 2 -3 -12 -31 -31 -62z m-3254 -47
c3 -13 9 -32 12 -41 6 -16 5 -16 -17 -4 -13 7 -27 12 -31 11 -12 -3 -9 16 4
38 17 26 25 25 32 -4z m44 -113 c-16 -2 -40 -2 -55 0 -16 2 -3 4 27 4 30 0 43
-2 28 -4z m2852 -13 c12 0 14 -37 13 -387 -1 -340 -4 -366 -60 -425 -30 -31
-31 -40 -6 -49 15 -6 14 -8 -7 -8 -33 -2 -54 -16 -46 -30 4 -6 36 -24 71 -40
66 -30 127 -69 290 -187 252 -183 288 -211 307 -243 20 -32 20 -34 4 -62 -10
-17 -15 -39 -12 -52 3 -12 3 -16 0 -9 -9 18 -20 15 -32 -12 -11 -26 -106 -102
-161 -131 -19 -10 -73 -26 -120 -36 -68 -14 -77 -18 -46 -18 22 -1 56 3 75 9
30 8 32 7 18 -4 -14 -11 -16 -19 -7 -49 5 -21 14 -37 20 -37 5 0 38 14 72 30
34 17 53 24 42 15 -35 -28 -147 -82 -218 -104 -55 -17 -77 -19 -110 -11 -55
12 -252 81 -347 120 -41 17 -129 52 -194 76 -66 25 -123 47 -127 50 -4 2 4 17
18 32 14 15 43 54 65 87 39 58 40 61 27 95 -10 27 -13 115 -11 395 3 544 13
581 203 780 62 64 124 123 138 130 14 8 43 30 65 50 22 21 45 34 53 31 8 -3
18 -6 23 -6z m1538 -163 c1 -62 -2 -118 -7 -126 -14 -23 -21 16 -16 93 3 37 0
76 -5 86 -11 21 8 89 20 70 4 -7 8 -62 8 -123z m-2648 -128 c0 -18 -4 -28 -10
-24 -5 3 -10 20 -10 36 0 18 4 28 10 24 6 -3 10 -20 10 -36z m291 18 c-10 -9
-11 -8 -5 6 3 10 9 15 12 12 3 -3 0 -11 -7 -18z m-51 -32 c0 -1 -11 -11 -23
-23 l-24 -22 3 22 c1 13 3 23 3 23 2 1 41 1 41 0z m381 -206 c-5 -13 -10 -19
-10 -12 -1 15 10 45 15 40 3 -2 0 -15 -5 -28z m-58 -104 c-3 -9 -8 -14 -10
-11 -3 3 -2 9 2 15 9 16 15 13 8 -4z m-2279 -152 c38 -31 40 -32 58 -16 18 16
19 16 9 -9 -33 -87 -238 -368 -370 -507 l-33 -36 32 42 c17 24 36 45 41 49 10
6 52 82 55 101 1 6 13 28 27 48 22 33 24 40 11 52 -8 8 -14 21 -14 28 0 15 30
95 59 160 10 22 22 51 25 65 4 14 12 37 18 53 12 30 8 32 82 -30z m2187 14
c-10 -9 -11 -8 -5 6 3 10 9 15 12 12 3 -3 0 -11 -7 -18z m-1601 -45 c0 -23
-17 -4 -23 25 -5 26 -4 26 9 8 8 -10 14 -25 14 -33z m4126 31 c14 -19 19 -53
7 -53 -14 0 -43 34 -43 52 0 23 19 23 36 1z m-1436 -8 c0 -8 -4 -15 -9 -15
-13 0 -22 16 -14 24 11 11 23 6 23 -9z m747 -17 c-3 -8 -6 -5 -6 6 -1 11 2 17
5 13 3 -3 4 -12 1 -19z m-50 -34 c-3 -3 -12 -4 -19 -1 -8 3 -5 6 6 6 11 1 17
-2 13 -5z m-444 -133 c43 -24 85 -40 93 -37 8 3 13 2 10 -3 -3 -5 18 -19 47
-31 47 -21 73 -25 184 -29 26 -1 38 -9 55 -36 13 -19 29 -35 36 -35 22 0 71
29 112 67 34 30 38 38 29 55 -12 22 -4 52 11 43 6 -4 10 -3 9 2 -4 23 3 25 17
5 8 -12 23 -22 32 -22 20 0 -67 -78 -147 -133 -69 -46 -168 -78 -241 -79 -86
-1 -283 80 -447 184 -71 45 -82 58 -23 28 42 -22 54 -25 46 -12 -2 4 10 23 28
42 l32 34 -25 24 -26 23 45 -24 c25 -13 80 -43 123 -66z m-3298 60 c-6 -5 -37
-30 -70 -56 -55 -43 -57 -44 -20 -8 39 38 84 73 94 73 3 0 1 -4 -4 -9z m3380
-89 c-3 -3 -11 0 -18 7 -9 10 -8 11 6 5 10 -3 15 -9 12 -12z m-2491 -73 c-10
-11 -28 -25 -39 -31 -11 -6 -5 4 13 21 38 35 55 42 26 10z m-1241 -140 c-23
-21 -47 -39 -52 -39 -5 0 11 20 37 44 26 25 49 42 52 39 3 -2 -14 -22 -37 -44z
m2014 -259 c6 -16 9 -30 5 -30 -11 0 -42 34 -42 47 0 25 26 13 37 -17z m-104
-94 c13 -31 25 -46 40 -48 21 -3 -131 -50 -203 -63 -34 -6 -38 -4 -82 52 l-46
59 29 -4 c17 -3 29 0 29 7 0 6 17 11 38 12 20 0 66 6 102 14 36 7 67 13 70 14
3 1 13 -19 23 -43z m1630 -38 c8 -5 6 -8 -5 -8 -10 0 -18 4 -18 9 0 5 -2 24
-5 42 l-5 34 11 -35 c6 -19 16 -38 22 -42z m115 -15 c-10 -2 -26 -2 -35 0 -10
3 -2 5 17 5 19 0 27 -2 18 -5z m754 -163 c-9 -16 -20 -30 -24 -30 -4 0 1 13
10 30 9 16 20 30 24 30 4 0 -1 -13 -10 -30z m-2878 -63 c-2 -7 -14 -19 -27
-26 -21 -13 -21 -12 2 13 27 29 33 32 25 13z m2857 -55 c-5 -9 -19 -26 -32
-37 -17 -15 -15 -10 7 17 32 41 40 48 25 20z m-2249 -82 c89 -5 182 -17 235
-30 150 -38 371 -134 527 -229 35 -22 74 -41 87 -43 28 -5 20 -9 -70 -30 l-63
-15 -93 62 c-175 117 -390 214 -565 255 -53 12 -153 25 -225 29 -97 6 -111 8
-55 9 41 1 141 -3 222 -8z m2066 -93 c-20 -18 -51 -40 -70 -50 -32 -17 -32
-17 -8 0 13 10 43 32 65 50 52 41 60 41 13 0z m-108 -72 c0 -14 -241 -116
-273 -115 -7 1 24 14 68 31 44 16 107 43 140 59 69 33 65 32 65 25z"/>
</g>
</svg>
